<mxfile host="Electron" agent="Mozilla/5.0 (X11; Linux x86_64) AppleWebKit/537.36 (KHTML, like Gecko) draw.io/26.1.1 Chrome/132.0.6834.210 Electron/34.5.0 Safari/537.36" version="26.1.1">
  <diagram name="Page-1" id="tN5K2Nhks3WNrbRtYstL">
    <mxGraphModel dx="3628" dy="1630" grid="1" gridSize="10" guides="1" tooltips="1" connect="1" arrows="1" fold="1" page="1" pageScale="1" pageWidth="850" pageHeight="1100" math="0" shadow="0">
      <root>
        <mxCell id="0" />
        <mxCell id="1" parent="0" />
        <mxCell id="GTe_rG1EHSNJOBv9OXUv-4" value="&lt;b&gt;&lt;font style=&quot;font-size: 22px;&quot;&gt;User&lt;/font&gt;&lt;/b&gt;" style="whiteSpace=wrap;html=1;align=center;" parent="1" vertex="1">
          <mxGeometry x="130" y="120" width="240" height="70" as="geometry" />
        </mxCell>
        <mxCell id="GTe_rG1EHSNJOBv9OXUv-5" value="&lt;b&gt;&lt;font style=&quot;font-size: 22px;&quot;&gt;Role&lt;/font&gt;&lt;/b&gt;" style="whiteSpace=wrap;html=1;align=center;" parent="1" vertex="1">
          <mxGeometry x="30" y="330" width="240" height="70" as="geometry" />
        </mxCell>
        <mxCell id="GTe_rG1EHSNJOBv9OXUv-8" value="Has" style="shape=rhombus;perimeter=rhombusPerimeter;whiteSpace=wrap;html=1;align=center;" parent="1" vertex="1">
          <mxGeometry x="120" y="230" width="120" height="60" as="geometry" />
        </mxCell>
        <mxCell id="GTe_rG1EHSNJOBv9OXUv-9" value="" style="endArrow=none;html=1;rounded=0;exitX=0.5;exitY=1;exitDx=0;exitDy=0;entryX=0.5;entryY=0;entryDx=0;entryDy=0;" parent="1" source="GTe_rG1EHSNJOBv9OXUv-8" target="GTe_rG1EHSNJOBv9OXUv-5" edge="1">
          <mxGeometry relative="1" as="geometry">
            <mxPoint x="340" y="210" as="sourcePoint" />
            <mxPoint x="500" y="210" as="targetPoint" />
          </mxGeometry>
        </mxCell>
        <mxCell id="GTe_rG1EHSNJOBv9OXUv-10" value="M" style="resizable=0;html=1;whiteSpace=wrap;align=right;verticalAlign=bottom;" parent="GTe_rG1EHSNJOBv9OXUv-9" connectable="0" vertex="1">
          <mxGeometry x="1" relative="1" as="geometry">
            <mxPoint y="-20" as="offset" />
          </mxGeometry>
        </mxCell>
        <mxCell id="GTe_rG1EHSNJOBv9OXUv-11" value="" style="shape=link;html=1;rounded=0;exitX=0.5;exitY=0;exitDx=0;exitDy=0;entryX=0.5;entryY=1;entryDx=0;entryDy=0;" parent="1" source="GTe_rG1EHSNJOBv9OXUv-8" target="GTe_rG1EHSNJOBv9OXUv-4" edge="1">
          <mxGeometry relative="1" as="geometry">
            <mxPoint x="340" y="210" as="sourcePoint" />
            <mxPoint x="500" y="210" as="targetPoint" />
          </mxGeometry>
        </mxCell>
        <mxCell id="GTe_rG1EHSNJOBv9OXUv-12" value="N" style="resizable=0;html=1;whiteSpace=wrap;align=right;verticalAlign=bottom;" parent="GTe_rG1EHSNJOBv9OXUv-11" connectable="0" vertex="1">
          <mxGeometry x="1" relative="1" as="geometry">
            <mxPoint x="-49" y="30" as="offset" />
          </mxGeometry>
        </mxCell>
        <mxCell id="GTe_rG1EHSNJOBv9OXUv-14" value="" style="endArrow=none;dashed=1;html=1;dashPattern=1 3;strokeWidth=2;rounded=0;" parent="1" edge="1">
          <mxGeometry width="50" height="50" relative="1" as="geometry">
            <mxPoint y="40" as="sourcePoint" />
            <mxPoint x="480" y="40" as="targetPoint" />
          </mxGeometry>
        </mxCell>
        <mxCell id="GTe_rG1EHSNJOBv9OXUv-15" value="" style="endArrow=none;dashed=1;html=1;dashPattern=1 3;strokeWidth=2;rounded=0;" parent="1" edge="1">
          <mxGeometry width="50" height="50" relative="1" as="geometry">
            <mxPoint x="480" y="520" as="sourcePoint" />
            <mxPoint x="480" y="40" as="targetPoint" />
          </mxGeometry>
        </mxCell>
        <mxCell id="GTe_rG1EHSNJOBv9OXUv-16" value="" style="endArrow=none;dashed=1;html=1;dashPattern=1 3;strokeWidth=2;rounded=0;" parent="1" edge="1">
          <mxGeometry width="50" height="50" relative="1" as="geometry">
            <mxPoint y="520" as="sourcePoint" />
            <mxPoint x="480" y="520" as="targetPoint" />
          </mxGeometry>
        </mxCell>
        <mxCell id="GTe_rG1EHSNJOBv9OXUv-17" value="&lt;font style=&quot;font-size: 25px;&quot;&gt;&lt;b&gt;General&lt;/b&gt;&lt;/font&gt;" style="text;html=1;align=center;verticalAlign=middle;resizable=0;points=[];autosize=1;strokeColor=none;fillColor=none;" parent="1" vertex="1">
          <mxGeometry y="50" width="120" height="40" as="geometry" />
        </mxCell>
        <mxCell id="GTe_rG1EHSNJOBv9OXUv-18" value="&lt;span style=&quot;font-size: 22px;&quot;&gt;&lt;b&gt;Author&lt;/b&gt;&lt;/span&gt;" style="whiteSpace=wrap;html=1;align=center;" parent="1" vertex="1">
          <mxGeometry x="960" y="50" width="240" height="70" as="geometry" />
        </mxCell>
        <mxCell id="GTe_rG1EHSNJOBv9OXUv-20" value="&lt;span style=&quot;font-size: 22px;&quot;&gt;&lt;b&gt;Announcement&lt;/b&gt;&lt;/span&gt;" style="whiteSpace=wrap;html=1;align=center;" parent="1" vertex="1">
          <mxGeometry x="780" y="310" width="240" height="70" as="geometry" />
        </mxCell>
        <mxCell id="GTe_rG1EHSNJOBv9OXUv-21" value="&lt;span style=&quot;font-size: 22px;&quot;&gt;&lt;b&gt;Article&lt;/b&gt;&lt;/span&gt;" style="whiteSpace=wrap;html=1;align=center;" parent="1" vertex="1">
          <mxGeometry x="1170" y="370" width="240" height="70" as="geometry" />
        </mxCell>
        <mxCell id="GTe_rG1EHSNJOBv9OXUv-22" value="&lt;span style=&quot;font-size: 22px;&quot;&gt;&lt;b&gt;Comment&lt;/b&gt;&lt;/span&gt;" style="whiteSpace=wrap;html=1;align=center;" parent="1" vertex="1">
          <mxGeometry x="950" y="570" width="240" height="70" as="geometry" />
        </mxCell>
        <mxCell id="GTe_rG1EHSNJOBv9OXUv-23" value="Has" style="shape=rhombus;perimeter=rhombusPerimeter;whiteSpace=wrap;html=1;align=center;" parent="1" vertex="1">
          <mxGeometry x="1300" y="490" width="120" height="60" as="geometry" />
        </mxCell>
        <mxCell id="GTe_rG1EHSNJOBv9OXUv-24" value="Is_Reply" style="shape=rhombus;perimeter=rhombusPerimeter;whiteSpace=wrap;html=1;align=center;" parent="1" vertex="1">
          <mxGeometry x="1155" y="665" width="120" height="60" as="geometry" />
        </mxCell>
        <mxCell id="GTe_rG1EHSNJOBv9OXUv-28" value="" style="endArrow=none;html=1;rounded=0;exitX=1;exitY=1;exitDx=0;exitDy=0;entryX=0.5;entryY=0;entryDx=0;entryDy=0;" parent="1" source="GTe_rG1EHSNJOBv9OXUv-22" target="GTe_rG1EHSNJOBv9OXUv-24" edge="1">
          <mxGeometry relative="1" as="geometry">
            <mxPoint x="1030" y="640" as="sourcePoint" />
            <mxPoint x="1190" y="640" as="targetPoint" />
          </mxGeometry>
        </mxCell>
        <mxCell id="GTe_rG1EHSNJOBv9OXUv-29" value="N" style="resizable=0;html=1;whiteSpace=wrap;align=right;verticalAlign=bottom;" parent="GTe_rG1EHSNJOBv9OXUv-28" connectable="0" vertex="1">
          <mxGeometry x="1" relative="1" as="geometry">
            <mxPoint x="-5" y="-10" as="offset" />
          </mxGeometry>
        </mxCell>
        <mxCell id="GTe_rG1EHSNJOBv9OXUv-30" value="" style="endArrow=none;html=1;rounded=0;exitX=1;exitY=0.5;exitDx=0;exitDy=0;entryX=1;entryY=0.5;entryDx=0;entryDy=0;" parent="1" source="GTe_rG1EHSNJOBv9OXUv-24" target="GTe_rG1EHSNJOBv9OXUv-22" edge="1">
          <mxGeometry relative="1" as="geometry">
            <mxPoint x="1030" y="640" as="sourcePoint" />
            <mxPoint x="1190" y="640" as="targetPoint" />
            <Array as="points">
              <mxPoint x="1280" y="650" />
            </Array>
          </mxGeometry>
        </mxCell>
        <mxCell id="GTe_rG1EHSNJOBv9OXUv-31" value="1" style="resizable=0;html=1;whiteSpace=wrap;align=right;verticalAlign=bottom;" parent="GTe_rG1EHSNJOBv9OXUv-30" connectable="0" vertex="1">
          <mxGeometry x="1" relative="1" as="geometry">
            <mxPoint x="70" y="55" as="offset" />
          </mxGeometry>
        </mxCell>
        <mxCell id="GTe_rG1EHSNJOBv9OXUv-33" value="" style="endArrow=none;html=1;rounded=0;exitX=0.5;exitY=1;exitDx=0;exitDy=0;entryX=0.5;entryY=0;entryDx=0;entryDy=0;" parent="1" source="GTe_rG1EHSNJOBv9OXUv-23" target="GTe_rG1EHSNJOBv9OXUv-22" edge="1">
          <mxGeometry relative="1" as="geometry">
            <mxPoint x="1030" y="640" as="sourcePoint" />
            <mxPoint x="1190" y="640" as="targetPoint" />
          </mxGeometry>
        </mxCell>
        <mxCell id="GTe_rG1EHSNJOBv9OXUv-34" value="N" style="resizable=0;html=1;whiteSpace=wrap;align=right;verticalAlign=bottom;" parent="GTe_rG1EHSNJOBv9OXUv-33" connectable="0" vertex="1">
          <mxGeometry x="1" relative="1" as="geometry">
            <mxPoint x="65" y="-30" as="offset" />
          </mxGeometry>
        </mxCell>
        <mxCell id="GTe_rG1EHSNJOBv9OXUv-35" value="" style="endArrow=none;html=1;rounded=0;exitX=0.5;exitY=0;exitDx=0;exitDy=0;entryX=0.5;entryY=1;entryDx=0;entryDy=0;" parent="1" source="GTe_rG1EHSNJOBv9OXUv-23" target="GTe_rG1EHSNJOBv9OXUv-21" edge="1">
          <mxGeometry relative="1" as="geometry">
            <mxPoint x="1030" y="640" as="sourcePoint" />
            <mxPoint x="1190" y="640" as="targetPoint" />
          </mxGeometry>
        </mxCell>
        <mxCell id="GTe_rG1EHSNJOBv9OXUv-36" value="1" style="resizable=0;html=1;whiteSpace=wrap;align=right;verticalAlign=bottom;" parent="GTe_rG1EHSNJOBv9OXUv-35" connectable="0" vertex="1">
          <mxGeometry x="1" relative="1" as="geometry">
            <mxPoint x="-10" y="40" as="offset" />
          </mxGeometry>
        </mxCell>
        <mxCell id="GTe_rG1EHSNJOBv9OXUv-37" value="Has" style="shape=rhombus;perimeter=rhombusPerimeter;whiteSpace=wrap;html=1;align=center;" parent="1" vertex="1">
          <mxGeometry x="890" y="210" width="120" height="60" as="geometry" />
        </mxCell>
        <mxCell id="GTe_rG1EHSNJOBv9OXUv-38" value="Has" style="shape=rhombus;perimeter=rhombusPerimeter;whiteSpace=wrap;html=1;align=center;" parent="1" vertex="1">
          <mxGeometry x="1140" y="210" width="120" height="60" as="geometry" />
        </mxCell>
        <mxCell id="GTe_rG1EHSNJOBv9OXUv-39" value="" style="shape=link;html=1;rounded=0;exitX=0.5;exitY=0;exitDx=0;exitDy=0;entryX=0.5;entryY=1;entryDx=0;entryDy=0;" parent="1" source="GTe_rG1EHSNJOBv9OXUv-37" target="GTe_rG1EHSNJOBv9OXUv-18" edge="1">
          <mxGeometry relative="1" as="geometry">
            <mxPoint x="980" y="340" as="sourcePoint" />
            <mxPoint x="1140" y="340" as="targetPoint" />
          </mxGeometry>
        </mxCell>
        <mxCell id="GTe_rG1EHSNJOBv9OXUv-40" value="1" style="resizable=0;html=1;whiteSpace=wrap;align=right;verticalAlign=bottom;" parent="GTe_rG1EHSNJOBv9OXUv-39" connectable="0" vertex="1">
          <mxGeometry x="1" relative="1" as="geometry">
            <mxPoint x="-80" y="50" as="offset" />
          </mxGeometry>
        </mxCell>
        <mxCell id="GTe_rG1EHSNJOBv9OXUv-41" value="" style="endArrow=none;html=1;rounded=0;exitX=0.5;exitY=1;exitDx=0;exitDy=0;entryX=0.5;entryY=0;entryDx=0;entryDy=0;" parent="1" source="GTe_rG1EHSNJOBv9OXUv-37" target="GTe_rG1EHSNJOBv9OXUv-20" edge="1">
          <mxGeometry relative="1" as="geometry">
            <mxPoint x="980" y="340" as="sourcePoint" />
            <mxPoint x="1140" y="340" as="targetPoint" />
          </mxGeometry>
        </mxCell>
        <mxCell id="GTe_rG1EHSNJOBv9OXUv-42" value="N" style="resizable=0;html=1;whiteSpace=wrap;align=right;verticalAlign=bottom;" parent="GTe_rG1EHSNJOBv9OXUv-41" connectable="0" vertex="1">
          <mxGeometry x="1" relative="1" as="geometry">
            <mxPoint x="10" y="-30" as="offset" />
          </mxGeometry>
        </mxCell>
        <mxCell id="GTe_rG1EHSNJOBv9OXUv-43" value="" style="shape=link;html=1;rounded=0;exitX=0.5;exitY=1;exitDx=0;exitDy=0;entryX=0.5;entryY=0;entryDx=0;entryDy=0;" parent="1" source="GTe_rG1EHSNJOBv9OXUv-18" target="GTe_rG1EHSNJOBv9OXUv-38" edge="1">
          <mxGeometry relative="1" as="geometry">
            <mxPoint x="980" y="340" as="sourcePoint" />
            <mxPoint x="1140" y="340" as="targetPoint" />
          </mxGeometry>
        </mxCell>
        <mxCell id="GTe_rG1EHSNJOBv9OXUv-44" value="1" style="resizable=0;html=1;whiteSpace=wrap;align=right;verticalAlign=bottom;" parent="GTe_rG1EHSNJOBv9OXUv-43" connectable="0" vertex="1">
          <mxGeometry x="1" relative="1" as="geometry">
            <mxPoint x="-40" y="-40" as="offset" />
          </mxGeometry>
        </mxCell>
        <mxCell id="GTe_rG1EHSNJOBv9OXUv-45" value="" style="endArrow=none;html=1;rounded=0;exitX=0.5;exitY=1;exitDx=0;exitDy=0;entryX=0.5;entryY=0;entryDx=0;entryDy=0;" parent="1" source="GTe_rG1EHSNJOBv9OXUv-38" target="GTe_rG1EHSNJOBv9OXUv-21" edge="1">
          <mxGeometry relative="1" as="geometry">
            <mxPoint x="980" y="340" as="sourcePoint" />
            <mxPoint x="1140" y="340" as="targetPoint" />
          </mxGeometry>
        </mxCell>
        <mxCell id="GTe_rG1EHSNJOBv9OXUv-46" value="N" style="resizable=0;html=1;whiteSpace=wrap;align=right;verticalAlign=bottom;" parent="GTe_rG1EHSNJOBv9OXUv-45" connectable="0" vertex="1">
          <mxGeometry x="1" relative="1" as="geometry">
            <mxPoint x="-45" y="-50" as="offset" />
          </mxGeometry>
        </mxCell>
        <mxCell id="GTe_rG1EHSNJOBv9OXUv-47" value="is_favorites" style="shape=rhombus;perimeter=rhombusPerimeter;whiteSpace=wrap;html=1;align=center;" parent="1" vertex="1">
          <mxGeometry x="540" y="430" width="120" height="60" as="geometry" />
        </mxCell>
        <mxCell id="GTe_rG1EHSNJOBv9OXUv-48" value="" style="endArrow=none;html=1;rounded=0;exitX=1;exitY=0.5;exitDx=0;exitDy=0;entryX=0.5;entryY=0;entryDx=0;entryDy=0;" parent="1" source="GTe_rG1EHSNJOBv9OXUv-4" target="GTe_rG1EHSNJOBv9OXUv-47" edge="1">
          <mxGeometry relative="1" as="geometry">
            <mxPoint x="480" y="460" as="sourcePoint" />
            <mxPoint x="640" y="460" as="targetPoint" />
          </mxGeometry>
        </mxCell>
        <mxCell id="GTe_rG1EHSNJOBv9OXUv-49" value="N" style="resizable=0;html=1;whiteSpace=wrap;align=right;verticalAlign=bottom;" parent="GTe_rG1EHSNJOBv9OXUv-48" connectable="0" vertex="1">
          <mxGeometry x="1" relative="1" as="geometry">
            <mxPoint x="-70" y="-100" as="offset" />
          </mxGeometry>
        </mxCell>
        <mxCell id="GTe_rG1EHSNJOBv9OXUv-50" value="" style="endArrow=none;html=1;rounded=0;exitX=0.948;exitY=0.461;exitDx=0;exitDy=0;exitPerimeter=0;entryX=0;entryY=0.5;entryDx=0;entryDy=0;" parent="1" source="GTe_rG1EHSNJOBv9OXUv-47" target="GTe_rG1EHSNJOBv9OXUv-21" edge="1">
          <mxGeometry relative="1" as="geometry">
            <mxPoint x="690" y="510" as="sourcePoint" />
            <mxPoint x="850" y="510" as="targetPoint" />
          </mxGeometry>
        </mxCell>
        <mxCell id="GTe_rG1EHSNJOBv9OXUv-51" value="M" style="resizable=0;html=1;whiteSpace=wrap;align=right;verticalAlign=bottom;" parent="GTe_rG1EHSNJOBv9OXUv-50" connectable="0" vertex="1">
          <mxGeometry x="1" relative="1" as="geometry">
            <mxPoint x="-120" y="5" as="offset" />
          </mxGeometry>
        </mxCell>
        <mxCell id="GTe_rG1EHSNJOBv9OXUv-52" value="&lt;span style=&quot;font-size: 22px;&quot;&gt;&lt;b&gt;Student&lt;/b&gt;&lt;/span&gt;" style="whiteSpace=wrap;html=1;align=center;" parent="1" vertex="1">
          <mxGeometry x="-460" y="910" width="240" height="70" as="geometry" />
        </mxCell>
        <mxCell id="GTe_rG1EHSNJOBv9OXUv-53" value="&lt;span style=&quot;font-size: 22px;&quot;&gt;&lt;b&gt;Teacher&lt;/b&gt;&lt;/span&gt;" style="whiteSpace=wrap;html=1;align=center;" parent="1" vertex="1">
          <mxGeometry x="450" y="935" width="240" height="70" as="geometry" />
        </mxCell>
        <mxCell id="GTe_rG1EHSNJOBv9OXUv-54" value="&lt;span style=&quot;font-size: 22px;&quot;&gt;&lt;b&gt;Book&lt;/b&gt;&lt;/span&gt;" style="whiteSpace=wrap;html=1;align=center;" parent="1" vertex="1">
          <mxGeometry x="520" y="1080" width="240" height="70" as="geometry" />
        </mxCell>
        <mxCell id="GTe_rG1EHSNJOBv9OXUv-55" value="&lt;span style=&quot;font-size: 22px;&quot;&gt;&lt;b&gt;Personnel&lt;/b&gt;&lt;/span&gt;" style="whiteSpace=wrap;html=1;align=center;" parent="1" vertex="1">
          <mxGeometry x="520" y="700" width="240" height="70" as="geometry" />
        </mxCell>
        <mxCell id="GTe_rG1EHSNJOBv9OXUv-57" value="&lt;span style=&quot;font-size: 22px;&quot;&gt;&lt;b&gt;Class&lt;/b&gt;&lt;/span&gt;" style="whiteSpace=wrap;html=1;align=center;" parent="1" vertex="1">
          <mxGeometry x="70" y="1020" width="240" height="70" as="geometry" />
        </mxCell>
        <mxCell id="GTe_rG1EHSNJOBv9OXUv-60" value="&lt;span style=&quot;font-size: 22px;&quot;&gt;&lt;b&gt;Timeslot&lt;/b&gt;&lt;/span&gt;" style="whiteSpace=wrap;html=1;align=center;" parent="1" vertex="1">
          <mxGeometry x="450" y="1220" width="240" height="70" as="geometry" />
        </mxCell>
        <mxCell id="uTlC51wtbgL0At9paiF0-1" value="&lt;span style=&quot;font-size: 22px;&quot;&gt;&lt;b&gt;Session&lt;/b&gt;&lt;/span&gt;" style="whiteSpace=wrap;html=1;align=center;" vertex="1" parent="1">
          <mxGeometry x="140" y="1340" width="240" height="70" as="geometry" />
        </mxCell>
        <mxCell id="uTlC51wtbgL0At9paiF0-2" value="&lt;span style=&quot;font-size: 22px;&quot;&gt;&lt;b&gt;Attendance&lt;/b&gt;&lt;/span&gt;" style="whiteSpace=wrap;html=1;align=center;" vertex="1" parent="1">
          <mxGeometry x="-350" y="1360" width="240" height="70" as="geometry" />
        </mxCell>
        <mxCell id="uTlC51wtbgL0At9paiF0-3" value="&lt;span style=&quot;font-size: 22px;&quot;&gt;&lt;b&gt;Enrollment&lt;/b&gt;&lt;/span&gt;" style="whiteSpace=wrap;html=1;align=center;" vertex="1" parent="1">
          <mxGeometry x="-90" y="660" width="240" height="70" as="geometry" />
        </mxCell>
        <mxCell id="uTlC51wtbgL0At9paiF0-4" value="has" style="shape=rhombus;perimeter=rhombusPerimeter;whiteSpace=wrap;html=1;align=center;" vertex="1" parent="1">
          <mxGeometry x="130" y="1200" width="120" height="60" as="geometry" />
        </mxCell>
        <mxCell id="uTlC51wtbgL0At9paiF0-5" value="" style="shape=link;html=1;rounded=0;exitX=0.5;exitY=0;exitDx=0;exitDy=0;entryX=0.5;entryY=1;entryDx=0;entryDy=0;" edge="1" parent="1" source="uTlC51wtbgL0At9paiF0-4" target="GTe_rG1EHSNJOBv9OXUv-57">
          <mxGeometry relative="1" as="geometry">
            <mxPoint x="260" y="1530" as="sourcePoint" />
            <mxPoint x="420" y="1530" as="targetPoint" />
          </mxGeometry>
        </mxCell>
        <mxCell id="uTlC51wtbgL0At9paiF0-6" value="1" style="resizable=0;html=1;whiteSpace=wrap;align=right;verticalAlign=bottom;" connectable="0" vertex="1" parent="uTlC51wtbgL0At9paiF0-5">
          <mxGeometry x="1" relative="1" as="geometry">
            <mxPoint x="-10" y="60" as="offset" />
          </mxGeometry>
        </mxCell>
        <mxCell id="uTlC51wtbgL0At9paiF0-9" value="" style="endArrow=none;html=1;rounded=0;exitX=0.5;exitY=1;exitDx=0;exitDy=0;entryX=0.5;entryY=0;entryDx=0;entryDy=0;" edge="1" parent="1" source="uTlC51wtbgL0At9paiF0-4" target="uTlC51wtbgL0At9paiF0-1">
          <mxGeometry relative="1" as="geometry">
            <mxPoint x="260" y="1530" as="sourcePoint" />
            <mxPoint x="420" y="1530" as="targetPoint" />
          </mxGeometry>
        </mxCell>
        <mxCell id="uTlC51wtbgL0At9paiF0-10" value="N" style="resizable=0;html=1;whiteSpace=wrap;align=right;verticalAlign=bottom;" connectable="0" vertex="1" parent="uTlC51wtbgL0At9paiF0-9">
          <mxGeometry x="1" relative="1" as="geometry">
            <mxPoint x="-40" y="-30" as="offset" />
          </mxGeometry>
        </mxCell>
        <mxCell id="uTlC51wtbgL0At9paiF0-11" value="uses" style="shape=rhombus;perimeter=rhombusPerimeter;whiteSpace=wrap;html=1;align=center;" vertex="1" parent="1">
          <mxGeometry x="340" y="1110" width="120" height="60" as="geometry" />
        </mxCell>
        <mxCell id="uTlC51wtbgL0At9paiF0-12" value="" style="shape=link;html=1;rounded=0;exitX=0.5;exitY=0;exitDx=0;exitDy=0;entryX=1;entryY=0.5;entryDx=0;entryDy=0;" edge="1" parent="1" source="uTlC51wtbgL0At9paiF0-11" target="GTe_rG1EHSNJOBv9OXUv-57">
          <mxGeometry relative="1" as="geometry">
            <mxPoint x="260" y="1290" as="sourcePoint" />
            <mxPoint x="420" y="1290" as="targetPoint" />
          </mxGeometry>
        </mxCell>
        <mxCell id="uTlC51wtbgL0At9paiF0-13" value="1" style="resizable=0;html=1;whiteSpace=wrap;align=right;verticalAlign=bottom;" connectable="0" vertex="1" parent="uTlC51wtbgL0At9paiF0-12">
          <mxGeometry x="1" relative="1" as="geometry">
            <mxPoint x="50" y="20" as="offset" />
          </mxGeometry>
        </mxCell>
        <mxCell id="uTlC51wtbgL0At9paiF0-16" value="Teaches" style="shape=rhombus;perimeter=rhombusPerimeter;whiteSpace=wrap;html=1;align=center;" vertex="1" parent="1">
          <mxGeometry x="270" y="950" width="120" height="60" as="geometry" />
        </mxCell>
        <mxCell id="uTlC51wtbgL0At9paiF0-17" value="" style="shape=link;html=1;rounded=0;exitX=1;exitY=0.5;exitDx=0;exitDy=0;entryX=0;entryY=0.5;entryDx=0;entryDy=0;" edge="1" parent="1" source="uTlC51wtbgL0At9paiF0-16" target="GTe_rG1EHSNJOBv9OXUv-53">
          <mxGeometry relative="1" as="geometry">
            <mxPoint x="300" y="1150" as="sourcePoint" />
            <mxPoint x="460" y="1150" as="targetPoint" />
          </mxGeometry>
        </mxCell>
        <mxCell id="uTlC51wtbgL0At9paiF0-18" value="1" style="resizable=0;html=1;whiteSpace=wrap;align=right;verticalAlign=bottom;" connectable="0" vertex="1" parent="uTlC51wtbgL0At9paiF0-17">
          <mxGeometry x="1" relative="1" as="geometry" />
        </mxCell>
        <mxCell id="uTlC51wtbgL0At9paiF0-19" value="" style="endArrow=none;html=1;rounded=0;exitX=0.5;exitY=0;exitDx=0;exitDy=0;entryX=0;entryY=0.5;entryDx=0;entryDy=0;" edge="1" parent="1" source="GTe_rG1EHSNJOBv9OXUv-57" target="uTlC51wtbgL0At9paiF0-16">
          <mxGeometry relative="1" as="geometry">
            <mxPoint x="60" y="950" as="sourcePoint" />
            <mxPoint x="220" y="950" as="targetPoint" />
          </mxGeometry>
        </mxCell>
        <mxCell id="uTlC51wtbgL0At9paiF0-20" value="N" style="resizable=0;html=1;whiteSpace=wrap;align=right;verticalAlign=bottom;" connectable="0" vertex="1" parent="uTlC51wtbgL0At9paiF0-19">
          <mxGeometry x="1" relative="1" as="geometry" />
        </mxCell>
        <mxCell id="uTlC51wtbgL0At9paiF0-22" value="has" style="shape=rhombus;perimeter=rhombusPerimeter;whiteSpace=wrap;html=1;align=center;" vertex="1" parent="1">
          <mxGeometry x="-410" y="1100" width="120" height="60" as="geometry" />
        </mxCell>
        <mxCell id="uTlC51wtbgL0At9paiF0-23" value="" style="shape=link;html=1;rounded=0;exitX=0.5;exitY=0;exitDx=0;exitDy=0;entryX=0.5;entryY=1;entryDx=0;entryDy=0;" edge="1" parent="1" source="uTlC51wtbgL0At9paiF0-22" target="GTe_rG1EHSNJOBv9OXUv-52">
          <mxGeometry relative="1" as="geometry">
            <mxPoint x="-70" y="1070" as="sourcePoint" />
            <mxPoint x="90" y="1070" as="targetPoint" />
          </mxGeometry>
        </mxCell>
        <mxCell id="uTlC51wtbgL0At9paiF0-24" value="1" style="resizable=0;html=1;whiteSpace=wrap;align=right;verticalAlign=bottom;" connectable="0" vertex="1" parent="uTlC51wtbgL0At9paiF0-23">
          <mxGeometry x="1" relative="1" as="geometry">
            <mxPoint x="-20" y="80" as="offset" />
          </mxGeometry>
        </mxCell>
        <mxCell id="uTlC51wtbgL0At9paiF0-25" value="" style="endArrow=none;html=1;rounded=0;exitX=0.5;exitY=1;exitDx=0;exitDy=0;entryX=0.5;entryY=0;entryDx=0;entryDy=0;" edge="1" parent="1" source="uTlC51wtbgL0At9paiF0-22" target="uTlC51wtbgL0At9paiF0-2">
          <mxGeometry relative="1" as="geometry">
            <mxPoint x="-170" y="1160" as="sourcePoint" />
            <mxPoint x="50" y="1160" as="targetPoint" />
          </mxGeometry>
        </mxCell>
        <mxCell id="uTlC51wtbgL0At9paiF0-26" value="N" style="resizable=0;html=1;whiteSpace=wrap;align=right;verticalAlign=bottom;" connectable="0" vertex="1" parent="uTlC51wtbgL0At9paiF0-25">
          <mxGeometry x="1" relative="1" as="geometry">
            <mxPoint x="-50" y="-121" as="offset" />
          </mxGeometry>
        </mxCell>
        <mxCell id="uTlC51wtbgL0At9paiF0-27" value="has" style="shape=rhombus;perimeter=rhombusPerimeter;whiteSpace=wrap;html=1;align=center;" vertex="1" parent="1">
          <mxGeometry x="-50" y="1410" width="120" height="60" as="geometry" />
        </mxCell>
        <mxCell id="uTlC51wtbgL0At9paiF0-28" value="" style="shape=link;html=1;rounded=0;exitX=1;exitY=0.5;exitDx=0;exitDy=0;entryX=0;entryY=0.75;entryDx=0;entryDy=0;" edge="1" parent="1" source="uTlC51wtbgL0At9paiF0-27" target="uTlC51wtbgL0At9paiF0-1">
          <mxGeometry relative="1" as="geometry">
            <mxPoint x="-80" y="1320" as="sourcePoint" />
            <mxPoint x="80" y="1320" as="targetPoint" />
          </mxGeometry>
        </mxCell>
        <mxCell id="uTlC51wtbgL0At9paiF0-29" value="1" style="resizable=0;html=1;whiteSpace=wrap;align=right;verticalAlign=bottom;" connectable="0" vertex="1" parent="uTlC51wtbgL0At9paiF0-28">
          <mxGeometry x="1" relative="1" as="geometry">
            <mxPoint x="-30" y="7" as="offset" />
          </mxGeometry>
        </mxCell>
        <mxCell id="uTlC51wtbgL0At9paiF0-30" value="" style="endArrow=none;html=1;rounded=0;exitX=0;exitY=0.5;exitDx=0;exitDy=0;entryX=1;entryY=0.5;entryDx=0;entryDy=0;" edge="1" parent="1" source="uTlC51wtbgL0At9paiF0-27" target="uTlC51wtbgL0At9paiF0-2">
          <mxGeometry relative="1" as="geometry">
            <mxPoint x="-80" y="1320" as="sourcePoint" />
            <mxPoint x="80" y="1320" as="targetPoint" />
          </mxGeometry>
        </mxCell>
        <mxCell id="uTlC51wtbgL0At9paiF0-31" value="N" style="resizable=0;html=1;whiteSpace=wrap;align=right;verticalAlign=bottom;" connectable="0" vertex="1" parent="uTlC51wtbgL0At9paiF0-30">
          <mxGeometry x="1" relative="1" as="geometry">
            <mxPoint x="50" y="5" as="offset" />
          </mxGeometry>
        </mxCell>
        <mxCell id="uTlC51wtbgL0At9paiF0-32" value="" style="endArrow=none;html=1;rounded=0;exitX=1;exitY=0.5;exitDx=0;exitDy=0;entryX=0;entryY=0.5;entryDx=0;entryDy=0;" edge="1" parent="1" source="uTlC51wtbgL0At9paiF0-11" target="GTe_rG1EHSNJOBv9OXUv-54">
          <mxGeometry relative="1" as="geometry">
            <mxPoint x="-80" y="1320" as="sourcePoint" />
            <mxPoint x="80" y="1320" as="targetPoint" />
          </mxGeometry>
        </mxCell>
        <mxCell id="uTlC51wtbgL0At9paiF0-33" value="1" style="resizable=0;html=1;whiteSpace=wrap;align=right;verticalAlign=bottom;" connectable="0" vertex="1" parent="uTlC51wtbgL0At9paiF0-32">
          <mxGeometry x="1" relative="1" as="geometry">
            <mxPoint x="-30" y="15" as="offset" />
          </mxGeometry>
        </mxCell>
        <mxCell id="uTlC51wtbgL0At9paiF0-34" value="Scheduled" style="shape=rhombus;perimeter=rhombusPerimeter;whiteSpace=wrap;html=1;align=center;" vertex="1" parent="1">
          <mxGeometry x="250" y="1170" width="120" height="60" as="geometry" />
        </mxCell>
        <mxCell id="uTlC51wtbgL0At9paiF0-35" value="" style="endArrow=none;html=1;rounded=0;exitX=0.75;exitY=1;exitDx=0;exitDy=0;entryX=0.5;entryY=0;entryDx=0;entryDy=0;" edge="1" parent="1" source="GTe_rG1EHSNJOBv9OXUv-57" target="uTlC51wtbgL0At9paiF0-34">
          <mxGeometry relative="1" as="geometry">
            <mxPoint x="290" y="1310" as="sourcePoint" />
            <mxPoint x="450" y="1310" as="targetPoint" />
          </mxGeometry>
        </mxCell>
        <mxCell id="uTlC51wtbgL0At9paiF0-36" value="N" style="resizable=0;html=1;whiteSpace=wrap;align=right;verticalAlign=bottom;" connectable="0" vertex="1" parent="uTlC51wtbgL0At9paiF0-35">
          <mxGeometry x="1" relative="1" as="geometry">
            <mxPoint x="-10" y="-30" as="offset" />
          </mxGeometry>
        </mxCell>
        <mxCell id="uTlC51wtbgL0At9paiF0-37" value="" style="endArrow=none;html=1;rounded=0;exitX=1;exitY=0.5;exitDx=0;exitDy=0;entryX=0;entryY=0.5;entryDx=0;entryDy=0;" edge="1" parent="1" source="uTlC51wtbgL0At9paiF0-34" target="GTe_rG1EHSNJOBv9OXUv-60">
          <mxGeometry relative="1" as="geometry">
            <mxPoint x="290" y="1310" as="sourcePoint" />
            <mxPoint x="450" y="1310" as="targetPoint" />
          </mxGeometry>
        </mxCell>
        <mxCell id="uTlC51wtbgL0At9paiF0-38" value="M" style="resizable=0;html=1;whiteSpace=wrap;align=right;verticalAlign=bottom;" connectable="0" vertex="1" parent="uTlC51wtbgL0At9paiF0-37">
          <mxGeometry x="1" relative="1" as="geometry">
            <mxPoint x="-50" y="-20" as="offset" />
          </mxGeometry>
        </mxCell>
        <mxCell id="uTlC51wtbgL0At9paiF0-39" value="has" style="shape=rhombus;perimeter=rhombusPerimeter;whiteSpace=wrap;html=1;align=center;" vertex="1" parent="1">
          <mxGeometry x="-270" y="770" width="120" height="60" as="geometry" />
        </mxCell>
        <mxCell id="uTlC51wtbgL0At9paiF0-40" value="belongs_to" style="shape=rhombus;perimeter=rhombusPerimeter;whiteSpace=wrap;html=1;align=center;" vertex="1" parent="1">
          <mxGeometry x="-60" y="850" width="120" height="60" as="geometry" />
        </mxCell>
        <mxCell id="uTlC51wtbgL0At9paiF0-41" value="" style="shape=link;html=1;rounded=0;exitX=0;exitY=0.5;exitDx=0;exitDy=0;entryX=0.5;entryY=0;entryDx=0;entryDy=0;" edge="1" parent="1" source="uTlC51wtbgL0At9paiF0-39" target="GTe_rG1EHSNJOBv9OXUv-52">
          <mxGeometry relative="1" as="geometry">
            <mxPoint x="190" y="1030" as="sourcePoint" />
            <mxPoint x="350" y="1030" as="targetPoint" />
          </mxGeometry>
        </mxCell>
        <mxCell id="uTlC51wtbgL0At9paiF0-42" value="N" style="resizable=0;html=1;whiteSpace=wrap;align=right;verticalAlign=bottom;" connectable="0" vertex="1" parent="uTlC51wtbgL0At9paiF0-41">
          <mxGeometry x="1" relative="1" as="geometry">
            <mxPoint x="20" y="-50" as="offset" />
          </mxGeometry>
        </mxCell>
        <mxCell id="uTlC51wtbgL0At9paiF0-43" value="" style="shape=link;html=1;rounded=0;exitX=0.5;exitY=0;exitDx=0;exitDy=0;entryX=0;entryY=0.5;entryDx=0;entryDy=0;" edge="1" parent="1" source="uTlC51wtbgL0At9paiF0-39" target="uTlC51wtbgL0At9paiF0-3">
          <mxGeometry relative="1" as="geometry">
            <mxPoint x="190" y="1030" as="sourcePoint" />
            <mxPoint x="350" y="1030" as="targetPoint" />
          </mxGeometry>
        </mxCell>
        <mxCell id="uTlC51wtbgL0At9paiF0-44" value="1" style="resizable=0;html=1;whiteSpace=wrap;align=right;verticalAlign=bottom;" connectable="0" vertex="1" parent="uTlC51wtbgL0At9paiF0-43">
          <mxGeometry x="1" relative="1" as="geometry">
            <mxPoint x="-60" y="35" as="offset" />
          </mxGeometry>
        </mxCell>
        <mxCell id="uTlC51wtbgL0At9paiF0-45" value="" style="endArrow=none;html=1;rounded=0;exitX=0.5;exitY=1;exitDx=0;exitDy=0;entryX=0.25;entryY=0;entryDx=0;entryDy=0;" edge="1" parent="1" source="uTlC51wtbgL0At9paiF0-40" target="GTe_rG1EHSNJOBv9OXUv-57">
          <mxGeometry relative="1" as="geometry">
            <mxPoint x="190" y="1030" as="sourcePoint" />
            <mxPoint x="350" y="1030" as="targetPoint" />
          </mxGeometry>
        </mxCell>
        <mxCell id="uTlC51wtbgL0At9paiF0-46" value="1" style="resizable=0;html=1;whiteSpace=wrap;align=right;verticalAlign=bottom;" connectable="0" vertex="1" parent="uTlC51wtbgL0At9paiF0-45">
          <mxGeometry x="1" relative="1" as="geometry">
            <mxPoint x="-40" y="-60" as="offset" />
          </mxGeometry>
        </mxCell>
        <mxCell id="uTlC51wtbgL0At9paiF0-48" value="" style="shape=link;html=1;rounded=0;exitX=0.5;exitY=0;exitDx=0;exitDy=0;entryX=0.5;entryY=1;entryDx=0;entryDy=0;" edge="1" parent="1" source="uTlC51wtbgL0At9paiF0-40" target="uTlC51wtbgL0At9paiF0-3">
          <mxGeometry relative="1" as="geometry">
            <mxPoint x="90" y="880" as="sourcePoint" />
            <mxPoint x="250" y="880" as="targetPoint" />
          </mxGeometry>
        </mxCell>
        <mxCell id="uTlC51wtbgL0At9paiF0-49" value="N" style="resizable=0;html=1;whiteSpace=wrap;align=right;verticalAlign=bottom;" connectable="0" vertex="1" parent="uTlC51wtbgL0At9paiF0-48">
          <mxGeometry x="1" relative="1" as="geometry">
            <mxPoint x="-30" y="70" as="offset" />
          </mxGeometry>
        </mxCell>
        <mxCell id="uTlC51wtbgL0At9paiF0-51" value="" style="endArrow=none;dashed=1;html=1;dashPattern=1 3;strokeWidth=2;rounded=0;" edge="1" parent="1">
          <mxGeometry width="50" height="50" relative="1" as="geometry">
            <mxPoint x="-560" y="600" as="sourcePoint" />
            <mxPoint x="840" y="600" as="targetPoint" />
          </mxGeometry>
        </mxCell>
        <mxCell id="uTlC51wtbgL0At9paiF0-55" value="" style="endArrow=none;dashed=1;html=1;dashPattern=1 3;strokeWidth=2;rounded=0;" edge="1" parent="1">
          <mxGeometry width="50" height="50" relative="1" as="geometry">
            <mxPoint x="840" y="600" as="sourcePoint" />
            <mxPoint x="850" y="1560" as="targetPoint" />
          </mxGeometry>
        </mxCell>
        <mxCell id="uTlC51wtbgL0At9paiF0-56" value="" style="endArrow=none;dashed=1;html=1;dashPattern=1 3;strokeWidth=2;rounded=0;" edge="1" parent="1">
          <mxGeometry width="50" height="50" relative="1" as="geometry">
            <mxPoint x="850" y="1560" as="sourcePoint" />
            <mxPoint x="-560" y="1560" as="targetPoint" />
          </mxGeometry>
        </mxCell>
        <mxCell id="uTlC51wtbgL0At9paiF0-57" value="" style="endArrow=none;dashed=1;html=1;dashPattern=1 3;strokeWidth=2;rounded=0;" edge="1" parent="1">
          <mxGeometry width="50" height="50" relative="1" as="geometry">
            <mxPoint x="-560" y="600" as="sourcePoint" />
            <mxPoint x="-560" y="1560" as="targetPoint" />
          </mxGeometry>
        </mxCell>
        <mxCell id="uTlC51wtbgL0At9paiF0-58" value="" style="endArrow=none;dashed=1;html=1;dashPattern=1 3;strokeWidth=2;rounded=0;" edge="1" parent="1">
          <mxGeometry width="50" height="50" relative="1" as="geometry">
            <mxPoint x="720" y="60" as="sourcePoint" />
            <mxPoint x="730" y="580" as="targetPoint" />
          </mxGeometry>
        </mxCell>
        <mxCell id="uTlC51wtbgL0At9paiF0-59" value="" style="endArrow=none;dashed=1;html=1;dashPattern=1 3;strokeWidth=2;rounded=0;" edge="1" parent="1">
          <mxGeometry width="50" height="50" relative="1" as="geometry">
            <mxPoint x="1310" y="800" as="sourcePoint" />
            <mxPoint x="730" y="580" as="targetPoint" />
            <Array as="points">
              <mxPoint x="840" y="600" />
            </Array>
          </mxGeometry>
        </mxCell>
        <mxCell id="uTlC51wtbgL0At9paiF0-62" value="" style="endArrow=none;dashed=1;html=1;dashPattern=1 3;strokeWidth=2;rounded=0;" edge="1" parent="1">
          <mxGeometry width="50" height="50" relative="1" as="geometry">
            <mxPoint x="1310" y="800" as="sourcePoint" />
            <mxPoint x="1600" y="140" as="targetPoint" />
          </mxGeometry>
        </mxCell>
        <mxCell id="uTlC51wtbgL0At9paiF0-63" value="" style="endArrow=none;dashed=1;html=1;dashPattern=1 3;strokeWidth=2;rounded=0;" edge="1" parent="1">
          <mxGeometry width="50" height="50" relative="1" as="geometry">
            <mxPoint x="1100" y="20" as="sourcePoint" />
            <mxPoint x="1600" y="140" as="targetPoint" />
          </mxGeometry>
        </mxCell>
        <mxCell id="uTlC51wtbgL0At9paiF0-64" value="" style="endArrow=none;dashed=1;html=1;dashPattern=1 3;strokeWidth=2;rounded=0;" edge="1" parent="1">
          <mxGeometry width="50" height="50" relative="1" as="geometry">
            <mxPoint x="720" y="60" as="sourcePoint" />
            <mxPoint x="1100" y="20" as="targetPoint" />
          </mxGeometry>
        </mxCell>
        <mxCell id="uTlC51wtbgL0At9paiF0-66" value="has" style="shape=rhombus;perimeter=rhombusPerimeter;whiteSpace=wrap;html=1;align=center;" vertex="1" parent="1">
          <mxGeometry x="580" y="70" width="120" height="60" as="geometry" />
        </mxCell>
        <mxCell id="uTlC51wtbgL0At9paiF0-67" value="" style="endArrow=none;html=1;rounded=0;exitX=1;exitY=0;exitDx=0;exitDy=0;entryX=0;entryY=0.5;entryDx=0;entryDy=0;" edge="1" parent="1" source="GTe_rG1EHSNJOBv9OXUv-4" target="uTlC51wtbgL0At9paiF0-66">
          <mxGeometry relative="1" as="geometry">
            <mxPoint x="450" y="150" as="sourcePoint" />
            <mxPoint x="610" y="150" as="targetPoint" />
          </mxGeometry>
        </mxCell>
        <mxCell id="uTlC51wtbgL0At9paiF0-68" value="N" style="resizable=0;html=1;whiteSpace=wrap;align=right;verticalAlign=bottom;" connectable="0" vertex="1" parent="uTlC51wtbgL0At9paiF0-67">
          <mxGeometry x="1" relative="1" as="geometry">
            <mxPoint x="-80" y="10" as="offset" />
          </mxGeometry>
        </mxCell>
        <mxCell id="uTlC51wtbgL0At9paiF0-71" value="" style="endArrow=none;html=1;rounded=0;exitX=1;exitY=0.5;exitDx=0;exitDy=0;entryX=0;entryY=0.5;entryDx=0;entryDy=0;" edge="1" parent="1" source="uTlC51wtbgL0At9paiF0-66" target="GTe_rG1EHSNJOBv9OXUv-18">
          <mxGeometry relative="1" as="geometry">
            <mxPoint x="740" y="240" as="sourcePoint" />
            <mxPoint x="900" y="240" as="targetPoint" />
          </mxGeometry>
        </mxCell>
        <mxCell id="uTlC51wtbgL0At9paiF0-72" value="1" style="resizable=0;html=1;whiteSpace=wrap;align=right;verticalAlign=bottom;" connectable="0" vertex="1" parent="uTlC51wtbgL0At9paiF0-71">
          <mxGeometry x="1" relative="1" as="geometry">
            <mxPoint x="-130" y="15" as="offset" />
          </mxGeometry>
        </mxCell>
        <mxCell id="uTlC51wtbgL0At9paiF0-73" value="has" style="shape=rhombus;perimeter=rhombusPerimeter;whiteSpace=wrap;html=1;align=center;" vertex="1" parent="1">
          <mxGeometry x="400" y="530" width="120" height="60" as="geometry" />
        </mxCell>
        <mxCell id="uTlC51wtbgL0At9paiF0-74" value="has" style="shape=rhombus;perimeter=rhombusPerimeter;whiteSpace=wrap;html=1;align=center;" vertex="1" parent="1">
          <mxGeometry x="-230" y="530" width="120" height="60" as="geometry" />
        </mxCell>
        <mxCell id="uTlC51wtbgL0At9paiF0-75" value="" style="endArrow=none;html=1;rounded=0;exitX=0.75;exitY=1;exitDx=0;exitDy=0;entryX=0.5;entryY=0;entryDx=0;entryDy=0;" edge="1" parent="1" source="GTe_rG1EHSNJOBv9OXUv-4" target="uTlC51wtbgL0At9paiF0-73">
          <mxGeometry relative="1" as="geometry">
            <mxPoint x="290" y="550" as="sourcePoint" />
            <mxPoint x="450" y="550" as="targetPoint" />
          </mxGeometry>
        </mxCell>
        <mxCell id="uTlC51wtbgL0At9paiF0-76" value="N" style="resizable=0;html=1;whiteSpace=wrap;align=right;verticalAlign=bottom;" connectable="0" vertex="1" parent="uTlC51wtbgL0At9paiF0-75">
          <mxGeometry x="1" relative="1" as="geometry">
            <mxPoint x="-50" y="-140" as="offset" />
          </mxGeometry>
        </mxCell>
        <mxCell id="uTlC51wtbgL0At9paiF0-78" value="" style="endArrow=none;html=1;rounded=0;exitX=0;exitY=0.5;exitDx=0;exitDy=0;entryX=0.5;entryY=0;entryDx=0;entryDy=0;" edge="1" parent="1" source="GTe_rG1EHSNJOBv9OXUv-4" target="uTlC51wtbgL0At9paiF0-74">
          <mxGeometry relative="1" as="geometry">
            <mxPoint x="290" y="550" as="sourcePoint" />
            <mxPoint x="450" y="550" as="targetPoint" />
          </mxGeometry>
        </mxCell>
        <mxCell id="uTlC51wtbgL0At9paiF0-79" value="N" style="resizable=0;html=1;whiteSpace=wrap;align=right;verticalAlign=bottom;" connectable="0" vertex="1" parent="uTlC51wtbgL0At9paiF0-78">
          <mxGeometry x="1" relative="1" as="geometry">
            <mxPoint x="150" y="-210" as="offset" />
          </mxGeometry>
        </mxCell>
        <mxCell id="uTlC51wtbgL0At9paiF0-80" value="has" style="shape=rhombus;perimeter=rhombusPerimeter;whiteSpace=wrap;html=1;align=center;" vertex="1" parent="1">
          <mxGeometry x="150" y="550" width="120" height="60" as="geometry" />
        </mxCell>
        <mxCell id="uTlC51wtbgL0At9paiF0-81" value="" style="endArrow=none;html=1;rounded=0;exitX=0.75;exitY=1;exitDx=0;exitDy=0;entryX=0.5;entryY=0;entryDx=0;entryDy=0;" edge="1" parent="1" source="GTe_rG1EHSNJOBv9OXUv-4" target="uTlC51wtbgL0At9paiF0-80">
          <mxGeometry relative="1" as="geometry">
            <mxPoint x="180" y="550" as="sourcePoint" />
            <mxPoint x="340" y="550" as="targetPoint" />
            <Array as="points">
              <mxPoint x="310" y="390" />
            </Array>
          </mxGeometry>
        </mxCell>
        <mxCell id="uTlC51wtbgL0At9paiF0-82" value="N" style="resizable=0;html=1;whiteSpace=wrap;align=right;verticalAlign=bottom;" connectable="0" vertex="1" parent="uTlC51wtbgL0At9paiF0-81">
          <mxGeometry x="1" relative="1" as="geometry">
            <mxPoint x="90" y="-90" as="offset" />
          </mxGeometry>
        </mxCell>
        <mxCell id="uTlC51wtbgL0At9paiF0-83" value="" style="endArrow=none;html=1;rounded=0;exitX=0.5;exitY=1;exitDx=0;exitDy=0;entryX=0.5;entryY=0;entryDx=0;entryDy=0;" edge="1" parent="1" source="uTlC51wtbgL0At9paiF0-80" target="GTe_rG1EHSNJOBv9OXUv-53">
          <mxGeometry relative="1" as="geometry">
            <mxPoint x="260" y="830" as="sourcePoint" />
            <mxPoint x="420" y="830" as="targetPoint" />
          </mxGeometry>
        </mxCell>
        <mxCell id="uTlC51wtbgL0At9paiF0-84" value="1" style="resizable=0;html=1;whiteSpace=wrap;align=right;verticalAlign=bottom;" connectable="0" vertex="1" parent="uTlC51wtbgL0At9paiF0-83">
          <mxGeometry x="1" relative="1" as="geometry">
            <mxPoint x="-189" y="-185" as="offset" />
          </mxGeometry>
        </mxCell>
        <mxCell id="uTlC51wtbgL0At9paiF0-85" value="" style="endArrow=none;html=1;rounded=0;exitX=0.5;exitY=1;exitDx=0;exitDy=0;entryX=0.25;entryY=0;entryDx=0;entryDy=0;" edge="1" parent="1" source="uTlC51wtbgL0At9paiF0-74" target="GTe_rG1EHSNJOBv9OXUv-52">
          <mxGeometry relative="1" as="geometry">
            <mxPoint x="260" y="830" as="sourcePoint" />
            <mxPoint x="420" y="830" as="targetPoint" />
          </mxGeometry>
        </mxCell>
        <mxCell id="uTlC51wtbgL0At9paiF0-86" value="1" style="resizable=0;html=1;whiteSpace=wrap;align=right;verticalAlign=bottom;" connectable="0" vertex="1" parent="uTlC51wtbgL0At9paiF0-85">
          <mxGeometry x="1" relative="1" as="geometry">
            <mxPoint x="110" y="-160" as="offset" />
          </mxGeometry>
        </mxCell>
        <mxCell id="uTlC51wtbgL0At9paiF0-87" value="" style="endArrow=none;html=1;rounded=0;exitX=0.5;exitY=1;exitDx=0;exitDy=0;entryX=0.5;entryY=0;entryDx=0;entryDy=0;" edge="1" parent="1" source="uTlC51wtbgL0At9paiF0-73" target="GTe_rG1EHSNJOBv9OXUv-55">
          <mxGeometry relative="1" as="geometry">
            <mxPoint x="330" y="650" as="sourcePoint" />
            <mxPoint x="490" y="650" as="targetPoint" />
          </mxGeometry>
        </mxCell>
        <mxCell id="uTlC51wtbgL0At9paiF0-88" value="1" style="resizable=0;html=1;whiteSpace=wrap;align=right;verticalAlign=bottom;" connectable="0" vertex="1" parent="uTlC51wtbgL0At9paiF0-87">
          <mxGeometry x="1" relative="1" as="geometry">
            <mxPoint x="-59" y="-39" as="offset" />
          </mxGeometry>
        </mxCell>
        <mxCell id="uTlC51wtbgL0At9paiF0-89" value="&lt;font style=&quot;font-size: 26px;&quot;&gt;&lt;b&gt;Management System&lt;/b&gt;&lt;/font&gt;" style="text;html=1;align=center;verticalAlign=middle;resizable=0;points=[];autosize=1;strokeColor=none;fillColor=none;" vertex="1" parent="1">
          <mxGeometry x="-550" y="610" width="280" height="40" as="geometry" />
        </mxCell>
        <mxCell id="uTlC51wtbgL0At9paiF0-90" value="&lt;font style=&quot;font-size: 25px;&quot;&gt;&lt;b&gt;Website Front&lt;/b&gt;&lt;/font&gt;" style="text;html=1;align=center;verticalAlign=middle;resizable=0;points=[];autosize=1;strokeColor=none;fillColor=none;" vertex="1" parent="1">
          <mxGeometry x="1280" y="180" width="190" height="40" as="geometry" />
        </mxCell>
      </root>
    </mxGraphModel>
  </diagram>
</mxfile>
